# xmcd CD database file generated by OrangeCD 6.3
#
# Track frame offsets:
#	150
#	23887
#	46850
#	71312
#	87850
#	107125
#	132525
#	151900
#	169125
#	190410
#
# Disc length: 2724 seconds
#
# Revision: 2
# Processed by: cddbd v1.5.2PL0 Copyright (c) Steve Scherf et al.
# Submitted via: OrangeCD 6.3
#
DISCID=7f0aa20a
DTITLE=Jocelyn B. Smith and Married Men - river
DYEAR=1991
DGENRE=Blues
TTITLE0=More Than Sex
TTITLE1=Stay
TTITLE2=River
TTITLE3=It's Alright
TTITLE4=Ghetto
TTITLE5=You Are All The World To Me
TTITLE6=Healing's-N-The Water
TTITLE7=Tell Me
TTITLE8=Think Big
TTITLE9=Can't Believe My Eyes
EXTD=
EXTT0=
EXTT1=
EXTT2=
EXTT3=
EXTT4=
EXTT5=
EXTT6=
EXTT7=
EXTT8=
EXTT9=
PLAYORDER=
